<?xml version="1.0" encoding="UTF-8" standalone="no"?>
<svg
   xmlns:dc="http://purl.org/dc/elements/1.1/"
   xmlns:cc="http://creativecommons.org/ns#"
   xmlns:rdf="http://www.w3.org/1999/02/22-rdf-syntax-ns#"
   xmlns:svg="http://www.w3.org/2000/svg"
   xmlns="http://www.w3.org/2000/svg"
   xmlns:sodipodi="http://sodipodi.sourceforge.net/DTD/sodipodi-0.dtd"
   xmlns:inkscape="http://www.inkscape.org/namespaces/inkscape"
   aria-hidden="true"
   focusable="false"
   data-prefix="fas"
   data-icon="envelope"
   class="svg-inline--fa fa-envelope fa-w-16"
   role="img"
   viewBox="0 0 512 512"
   version="1.1"
   id="svg4"
   sodipodi:docname="envelope-solid.svg"
   inkscape:version="1.0.2 (1.0.2+r75+1)">
  <metadata
     id="metadata10">
    <rdf:RDF>
      <cc:Work
         rdf:about="">
        <dc:format>image/svg+xml</dc:format>
        <dc:type
           rdf:resource="http://purl.org/dc/dcmitype/StillImage" />
      </cc:Work>
    </rdf:RDF>
  </metadata>
  <defs
     id="defs8" />
  <sodipodi:namedview
     pagecolor="#ffffff"
     bordercolor="#666666"
     borderopacity="1"
     objecttolerance="10"
     gridtolerance="10"
     guidetolerance="10"
     inkscape:pageopacity="0"
     inkscape:pageshadow="2"
     inkscape:window-width="1280"
     inkscape:window-height="737"
     id="namedview6"
     showgrid="false"
     inkscape:zoom="0.7578125"
     inkscape:cx="234.8866"
     inkscape:cy="256"
     inkscape:window-x="0"
     inkscape:window-y="30"
     inkscape:window-maximized="1"
     inkscape:current-layer="svg4"
     inkscape:document-rotation="0" />
  <path
     fill="currentColor"
     d="M 471.5125,198.95 C 474.925,196.2375 480,198.775 480,203.0625 V 382 c 0,23.1875 -18.8125,42 -42,42 H 74 C 50.8125,424 32,405.1875 32,382 V 203.15 c 0,-4.375 4.9875,-6.825 8.4875,-4.1125 19.6,15.225 45.5875,34.5625 134.8375,99.4 18.4625,13.475 49.6125,41.825 80.675,41.65 31.2375,0.2625 63,-28.7 80.7625,-41.65 89.25,-64.8375 115.15,-84.2625 134.75,-99.4875 z M 256,312 c 20.3,0.35 49.525,-25.55 64.225,-36.225 C 436.3375,191.5125 445.175,184.1625 471.95,163.1625 477.025,159.225 480,153.1 480,146.625 V 130 C 480,106.8125 461.1875,88 438,88 H 74 c -23.1875,0 -42,18.8125 -42,42 v 16.625 c 0,6.475 2.975,12.5125 8.05,16.5375 26.775,20.9125 35.6125,28.35 151.725,112.6125 C 206.475,286.45 235.7,312.35 256,312 Z"
     id="path2"
     style="stroke-width:0.875;fill:#008b8b;fill-opacity:1" />
</svg>
