<?xml version="1.0" encoding="UTF-8" standalone="no"?>
<svg
   xmlns:dc="http://purl.org/dc/elements/1.1/"
   xmlns:cc="http://creativecommons.org/ns#"
   xmlns:rdf="http://www.w3.org/1999/02/22-rdf-syntax-ns#"
   xmlns:svg="http://www.w3.org/2000/svg"
   xmlns="http://www.w3.org/2000/svg"
   xmlns:sodipodi="http://sodipodi.sourceforge.net/DTD/sodipodi-0.dtd"
   xmlns:inkscape="http://www.inkscape.org/namespaces/inkscape"
   aria-hidden="true"
   focusable="false"
   data-prefix="fab"
   data-icon="github"
   class="svg-inline--fa fa-github fa-w-16"
   role="img"
   viewBox="0 0 512 512"
   version="1.1"
   id="svg4"
   sodipodi:docname="github-brands.svg"
   width="512"
   height="512"
   inkscape:version="1.0.2 (1.0.2+r75+1)">
  <metadata
     id="metadata10">
    <rdf:RDF>
      <cc:Work
         rdf:about="">
        <dc:format>image/svg+xml</dc:format>
        <dc:type
           rdf:resource="http://purl.org/dc/dcmitype/StillImage" />
        <dc:title />
      </cc:Work>
    </rdf:RDF>
  </metadata>
  <defs
     id="defs8" />
  <sodipodi:namedview
     pagecolor="#ffffff"
     bordercolor="#666666"
     borderopacity="1"
     objecttolerance="10"
     gridtolerance="10"
     guidetolerance="10"
     inkscape:pageopacity="0"
     inkscape:pageshadow="2"
     inkscape:window-width="1280"
     inkscape:window-height="737"
     id="namedview6"
     showgrid="false"
     inkscape:zoom="0.7578125"
     inkscape:cx="248"
     inkscape:cy="256"
     inkscape:window-x="0"
     inkscape:window-y="30"
     inkscape:window-maximized="1"
     inkscape:current-layer="svg4"
     inkscape:document-rotation="0" />
  <path
     fill="currentColor"
     d="m 181.84516,389.31277 c 0,1.80645 -2.07742,3.25161 -4.69677,3.25161 -2.98065,0.27097 -5.05807,-1.17419 -5.05807,-3.25161 0,-1.80645 2.07742,-3.25161 4.69678,-3.25161 2.70967,-0.27097 5.05806,1.17419 5.05806,3.25161 z m -28.09032,-4.06452 c -0.63226,1.80645 1.17419,3.88387 3.88387,4.42581 2.34839,0.90323 5.05806,0 5.6,-1.80645 0.54194,-1.80645 -1.17419,-3.88387 -3.88387,-4.69678 -2.34839,-0.63225 -4.96774,0.27097 -5.6,2.07742 z m 39.92258,-1.53548 c -2.61936,0.63226 -4.42581,2.34839 -4.15484,4.42581 0.27097,1.80645 2.61936,2.98064 5.32903,2.34838 2.61936,-0.63226 4.42581,-2.34838 4.15484,-4.15484 -0.27097,-1.71612 -2.70968,-2.89032 -5.32903,-2.61935 z M 253.10968,37.596643 C 127.83226,37.596643 32,132.70632 32,257.98374 c 0,100.16774 63.045161,185.88387 153.09677,216.05161 11.56129,2.07742 15.62581,-5.05806 15.62581,-10.92903 0,-5.6 -0.27097,-36.49032 -0.27097,-55.45807 0,0 -63.2258,13.54839 -76.50322,-26.91613 0,0 -10.29678,-26.28387 -25.10968,-33.05806 0,0 -20.683871,-14.18065 1.44516,-13.90968 0,0 22.49032,1.80645 34.86452,23.30323 19.78064,34.86451 52.92903,24.83871 65.84516,18.87742 2.07742,-14.45162 7.94839,-24.47742 14.45161,-30.43871 -50.49032,-5.6 -101.43226,-12.91613 -101.43226,-99.80645 0,-24.83871 6.86452,-37.30323 21.31613,-53.2 -2.34838,-5.87097 -10.0258,-30.07742 2.34839,-61.32904 18.87742,-5.87096 62.32258,24.3871 62.32258,24.3871 18.06452,-5.05806 37.48387,-7.67742 56.72258,-7.67742 19.23871,0 38.65807,2.61936 56.72258,7.67742 0,0 43.44516,-30.34839 62.32258,-24.3871 12.3742,31.34194 4.69678,55.45807 2.34839,61.32904 14.45161,15.98709 23.30322,28.45161 23.30322,53.2 0,87.16129 -53.2,94.11613 -103.69032,99.80645 8.30968,7.13548 15.35484,20.68387 15.35484,41.90968 0,30.4387 -0.27097,68.10322 -0.27097,75.50967 0,5.87097 4.15484,13.00645 15.62581,10.92903 C 418.76129,443.86761 480,358.15148 480,257.98374 480,132.70632 378.3871,37.596643 253.10968,37.596643 Z M 119.79355,349.11922 c -1.17419,0.90323 -0.90323,2.98065 0.63226,4.69678 1.44516,1.44516 3.52258,2.07741 4.69677,0.90322 1.17419,-0.90322 0.90323,-2.98064 -0.63226,-4.69677 -1.44516,-1.44516 -3.52258,-2.07742 -4.69677,-0.90323 z m -9.75484,-7.31613 c -0.63226,1.1742 0.27097,2.61936 2.07742,3.52258 1.44516,0.90323 3.25161,0.63226 3.88387,-0.63226 0.63226,-1.17419 -0.27097,-2.61935 -2.07742,-3.52258 -1.80645,-0.54193 -3.25161,-0.27096 -3.88387,0.63226 z m 29.26452,32.15484 c -1.44517,1.17419 -0.90323,3.88387 1.17419,5.6 2.07742,2.07742 4.69677,2.34839 5.87097,0.90323 1.17419,-1.1742 0.63226,-3.88387 -1.1742,-5.6 -1.98709,-2.07742 -4.69677,-2.34839 -5.87096,-0.90323 z m -10.29678,-13.27742 c -1.44516,0.90323 -1.44516,3.25161 0,5.32903 1.44516,2.07742 3.88387,2.98065 5.05807,2.07742 1.44516,-1.17419 1.44516,-3.52258 0,-5.6 -1.26452,-2.07742 -3.61291,-2.98064 -5.05807,-1.80645 z"
     id="path2"
     style="stroke-width:0.903226;fill:#008b8b;fill-opacity:1" />
</svg>
