<?xml version="1.0" encoding="UTF-8" standalone="no"?>
<svg
   xmlns:dc="http://purl.org/dc/elements/1.1/"
   xmlns:cc="http://creativecommons.org/ns#"
   xmlns:rdf="http://www.w3.org/1999/02/22-rdf-syntax-ns#"
   xmlns:svg="http://www.w3.org/2000/svg"
   xmlns="http://www.w3.org/2000/svg"
   xmlns:sodipodi="http://sodipodi.sourceforge.net/DTD/sodipodi-0.dtd"
   xmlns:inkscape="http://www.inkscape.org/namespaces/inkscape"
   aria-hidden="true"
   focusable="false"
   data-prefix="fab"
   data-icon="instagram"
   class="svg-inline--fa fa-instagram fa-w-14"
   role="img"
   viewBox="0 0 512 512"
   version="1.1"
   id="svg4"
   sodipodi:docname="instagram-brands.svg"
   width="512"
   height="512"
   inkscape:version="1.0.2 (1.0.2+r75+1)">
  <metadata
     id="metadata10">
    <rdf:RDF>
      <cc:Work
         rdf:about="">
        <dc:format>image/svg+xml</dc:format>
        <dc:type
           rdf:resource="http://purl.org/dc/dcmitype/StillImage" />
        <dc:title />
      </cc:Work>
    </rdf:RDF>
  </metadata>
  <defs
     id="defs8" />
  <sodipodi:namedview
     pagecolor="#ffffff"
     bordercolor="#666666"
     borderopacity="1"
     objecttolerance="10"
     gridtolerance="10"
     guidetolerance="10"
     inkscape:pageopacity="0"
     inkscape:pageshadow="2"
     inkscape:window-width="1280"
     inkscape:window-height="737"
     id="namedview6"
     showgrid="false"
     inkscape:zoom="0.7578125"
     inkscape:cx="224"
     inkscape:cy="256"
     inkscape:window-x="0"
     inkscape:window-y="30"
     inkscape:window-maximized="1"
     inkscape:current-layer="svg4"
     inkscape:document-rotation="0" />
  <path
     fill="currentColor"
     d="m 256.04997,141.16408 c -63.56453,0 -114.83592,51.27139 -114.83592,114.83592 0,63.56453 51.27139,114.83592 114.83592,114.83592 63.56453,0 114.83592,-51.27139 114.83592,-114.83592 0,-63.56453 -51.27139,-114.83592 -114.83592,-114.83592 z m 0,189.49426 c -41.07708,0 -74.65834,-33.48132 -74.65834,-74.65834 0,-41.17702 33.48132,-74.65834 74.65834,-74.65834 41.17702,0 74.65834,33.48132 74.65834,74.65834 0,41.17702 -33.58126,74.65834 -74.65834,74.65834 z M 402.36832,136.4667 c 0,14.89169 -11.99331,26.78505 -26.78505,26.78505 -14.89169,0 -26.78505,-11.9933 -26.78505,-26.78505 0,-14.79174 11.9933,-26.78505 26.78505,-26.78505 14.79174,0 26.78505,11.99331 26.78505,26.78505 z m 76.05756,27.18483 C 476.72683,127.77155 468.5314,95.989294 442.24607,69.803906 416.06068,43.618518 384.27842,35.423092 348.39844,33.624096 c -36.97937,-2.098829 -147.81751,-2.098829 -184.79688,0 -35.78003,1.699051 -67.562297,9.894478 -93.847629,36.079866 -26.285332,26.185387 -34.380814,57.967648 -36.17981,93.847628 -2.098829,36.97936 -2.098829,147.81751 0,184.79687 1.699051,35.87998 9.894478,67.66225 36.17981,93.84763 26.285332,26.18539 57.967649,34.38082 93.847629,36.17981 36.97937,2.09883 147.81751,2.09883 184.79688,0 35.87998,-1.69905 67.66224,-9.89447 93.84763,-36.17981 26.18539,-26.18538 34.38081,-57.96765 36.17981,-93.84763 2.09883,-36.97936 2.09883,-147.71756 0,-184.69693 z m -47.77334,224.37479 c -7.79565,19.58907 -22.88723,34.68065 -42.57624,42.57624 -29.48355,11.69348 -99.44451,8.99498 -132.02633,8.99498 -32.58182,0 -102.64272,2.59855 -132.02632,-8.99498 C 104.43458,422.80691 89.343,407.71534 81.447406,388.02632 69.753931,358.54278 72.452425,288.58182 72.452425,256 c 0,-32.58182 -2.59855,-102.64272 8.994981,-132.02633 7.795649,-19.58907 22.887224,-34.68064 42.576244,-42.576234 29.48354,-11.693474 99.4445,-8.99498 132.02632,-8.99498 32.58182,0 102.64272,-2.59855 132.02633,8.99498 19.58907,7.79565 34.68064,22.887224 42.57624,42.576234 11.69347,29.48355 8.99498,99.44451 8.99498,132.02633 0,32.58182 2.69849,102.64272 -8.99498,132.02632 z"
     id="path2"
     style="stroke-width:0.999442;fill:#008b8b;fill-opacity:1" />
</svg>
