<?xml version="1.0" encoding="UTF-8" standalone="no"?>
<svg
   xmlns:dc="http://purl.org/dc/elements/1.1/"
   xmlns:cc="http://creativecommons.org/ns#"
   xmlns:rdf="http://www.w3.org/1999/02/22-rdf-syntax-ns#"
   xmlns:svg="http://www.w3.org/2000/svg"
   xmlns="http://www.w3.org/2000/svg"
   xmlns:sodipodi="http://sodipodi.sourceforge.net/DTD/sodipodi-0.dtd"
   xmlns:inkscape="http://www.inkscape.org/namespaces/inkscape"
   aria-hidden="true"
   focusable="false"
   data-prefix="fab"
   data-icon="lastfm"
   class="svg-inline--fa fa-lastfm fa-w-16"
   role="img"
   viewBox="0 0 512 512"
   version="1.1"
   id="svg4"
   sodipodi:docname="lastfm-brands.svg"
   inkscape:version="1.0.2 (1.0.2+r75+1)">
  <metadata
     id="metadata10">
    <rdf:RDF>
      <cc:Work
         rdf:about="">
        <dc:format>image/svg+xml</dc:format>
        <dc:type
           rdf:resource="http://purl.org/dc/dcmitype/StillImage" />
        <dc:title />
      </cc:Work>
    </rdf:RDF>
  </metadata>
  <defs
     id="defs8" />
  <sodipodi:namedview
     pagecolor="#ffffff"
     bordercolor="#666666"
     borderopacity="1"
     objecttolerance="10"
     gridtolerance="10"
     guidetolerance="10"
     inkscape:pageopacity="0"
     inkscape:pageshadow="2"
     inkscape:window-width="1280"
     inkscape:window-height="737"
     id="namedview6"
     showgrid="false"
     inkscape:zoom="0.7578125"
     inkscape:cx="46.845361"
     inkscape:cy="256"
     inkscape:window-x="0"
     inkscape:window-y="30"
     inkscape:window-maximized="1"
     inkscape:current-layer="svg4"
     inkscape:document-rotation="0" />
  <path
     fill="currentColor"
     d="m 229.57503,353.21249 -16.45007,-44.625 c 0,0 -26.68747,29.75008 -66.67496,29.75008 -35.4375,0 -60.55,-30.80006 -60.55,-80.06258 0,-63.08759 31.85,-85.66247 63.08752,-85.66247 58.18751,0 65.44997,46.63752 88.28752,118.03743 16.45001,49.78757 47.24995,89.77505 135.97497,89.77505 C 436.86252,380.425 480,360.91251 480,309.63746 480,245.84995 425.13754,239.11254 379.37494,229.04995 356.8,223.88744 350.14996,214.70008 350.14996,199.29999 c 0,-17.41243 13.82507,-27.73751 36.40012,-27.73751 24.67489,0 37.97491,9.27498 39.98736,31.32499 l 51.27505,-6.12487 c -4.11247,-46.20009 -35.96245,-65.1876 -88.28741,-65.1876 -46.20003,0 -91.35002,17.41248 -91.35002,73.41248 0,34.91248 16.97494,56.96255 59.49986,67.2 39.28768,9.27499 69.82507,12.07505 69.82507,39.98752 0,18.9876 -18.46247,26.68744 -53.375,26.68744 -51.79991,0 -73.41243,-27.21252 -85.66253,-64.6625 C 260.46246,189.49996 250.31256,131.575 147.32505,131.575 71.987495,131.575 32,179.26256 32,260.375 c 0,77.96257 39.987495,120.05 111.91256,120.05 57.92496,0 85.66247,-27.21251 85.66247,-27.21251 z"
     id="path2"
     style="stroke-width:0.875" />
</svg>
