<?xml version="1.0" encoding="UTF-8" standalone="no"?>
<svg
   xmlns:dc="http://purl.org/dc/elements/1.1/"
   xmlns:cc="http://creativecommons.org/ns#"
   xmlns:rdf="http://www.w3.org/1999/02/22-rdf-syntax-ns#"
   xmlns:svg="http://www.w3.org/2000/svg"
   xmlns="http://www.w3.org/2000/svg"
   aria-hidden="true"
   focusable="false"
   data-prefix="fas"
   data-icon="rss"
   class="svg-inline--fa fa-rss fa-w-14"
   role="img"
   viewBox="0 0 512 512"
   version="1.1"
   id="svg4"
   width="512"
   height="512">
  <metadata
     id="metadata10">
    <rdf:RDF>
      <cc:Work
         rdf:about="">
        <dc:format>image/svg+xml</dc:format>
        <dc:type
           rdf:resource="http://purl.org/dc/dcmitype/StillImage" />
        <dc:title></dc:title>
      </cc:Work>
    </rdf:RDF>
  </metadata>
  <defs
     id="defs8" />
  <path
     fill="currentColor"
     d="m 160.0808,415.9587 c 0,35.369 -28.672,64.041 -64.040995,64.041 -35.369,0 -64.04,-28.672 -64.04,-64.041 0,-35.369 28.672,-64.041 64.041,-64.041 35.368995,0 64.039995,28.673 64.039995,64.041 z m 175.66,47.25 c -8.354,-154.6 -132.185,-278.587 -286.949995,-286.95 -9.135,-0.494 -16.791,6.846 -16.791,15.994 v 48.069 c 0,8.415 6.49,15.472 14.887,16.018 111.831995,7.284 201.472995,96.702 208.771995,208.772 0.547,8.397 7.604,14.887 16.018,14.887 h 48.069 c 9.149,0.001 16.489,-7.655 15.995,-16.79 z m 144.249,0.288 C 471.5958,229.6767 283.4648,40.444696 48.502805,32.009696 c -9.03,-0.324 -16.503,6.971 -16.503,16.006 v 48.068 c 0,8.625004 6.835,15.645004 15.453,15.999004 191.178995,7.839 344.626995,161.316 352.464995,352.465 0.353,8.618 7.373,15.453 15.999,15.453 h 48.068 c 9.034,-10e-4 16.329,-7.474 16.005,-16.504 z"
     id="path2"
     style="fill:#008184;fill-opacity:1" />
</svg>
