<svg xmlns="http://www.w3.org/2000/svg" viewBox="0 0 580.78 336.45"><defs><style>.cls-1{fill:#125786;}.cls-2{fill:#90c369;}</style></defs><g id="Camada_2" data-name="Camada 2"><g id="Camada_1-2" data-name="Camada 1"><path class="cls-1" d="M224.41,223.35a8,8,0,0,1-2.19-.35,1.58,1.58,0,0,1-1.2-1.7,3,3,0,0,1,.24-1.2l.46-1.08q5.33-11.16,10.56-22.33T242.6,174.3c2.8-6.16,12.69-27.26,15.65-33.34a2.32,2.32,0,0,1,3.92,0c3,6.08,12.93,27.2,15.74,33.36q5.14,11.28,10.37,22.42T298.84,219a8,8,0,0,1,.49,1.08,3.4,3.4,0,0,1,.21,1.2,1.58,1.58,0,0,1-1.2,1.7,8,8,0,0,1-2.19.35H277.26a2.59,2.59,0,0,1-1.75-.5,4.25,4.25,0,0,1-1.05-1.49,34.74,34.74,0,0,1-1.87-5c-.51-1.73-1.1-3.42-1.76-5.05a.94.94,0,0,0-.87-.65H247.27a.93.93,0,0,0-.82.47.2.2,0,0,0-.06.15.58.58,0,0,1,0,.2q-.71,1.76-1.44,3.51c-.48,1.17-1,2.34-1.43,3.51-.19.47-.39,1-.58,1.49a15.56,15.56,0,0,1-.65,1.49,4.1,4.1,0,0,1-1.05,1.4,2.66,2.66,0,0,1-1.69.47Zm27.91-30h15.76q-1.81-5.38-3.68-10.77t-3.68-10.7l-4.16,10.7Q254.46,188,252.32,193.36Z"/><path class="cls-1" d="M85.75,143c0-2.06,1-3.1,3-3.1h50.74c2,0,3,1,3,3.1,0,1.37,0,2.74-.09,4.12s-.08,2.78-.08,4.18q-.06,1.23,0,2.49a17.05,17.05,0,0,1-.06,2.48q-.18,3-3,3H125.56a.83.83,0,0,0-.93.94c0,3.55,0,7.09,0,10.64s0,7.09,0,10.64q0,9.7.08,19.41t.09,19.41q0,3-3,3H105.57q-3,0-3-3,0-9.7.09-19.41t.09-19.41c0-3.55,0-7.09,0-10.64s0-7.09,0-10.64c0-.62-.33-.94-1-.94H89q-2.86,0-3-3c0-.82,0-1.64,0-2.48s0-1.67,0-2.49c0-1.4,0-2.79-.09-4.18S85.75,144.39,85.75,143Z"/><path class="cls-1" d="M154,143c0-2,1-3,3-3h49.69c2,0,3,1,3,3.1,0,1.25,0,2.5-.06,3.74l-.12,3.74c0,1,0,1.95,0,2.9a25.42,25.42,0,0,1,0,2.89c-.12,2-1.14,3-3,3H177.21c-.66,0-1,.32-1,.94l.06,11.63a.83.83,0,0,0,.93.94h24.85q3,0,3,3V187q0,3-3,3H177.21a.83.83,0,0,0-.93.94l-.06,12c0,.63.33.94,1,.94h30.58c1.87,0,2.86,1,3,2.92q.18,3.17.23,6.67t.06,6.66q0,3.1-3,3.1H157q-3,0-3-3c0-2.06,0-4.14.08-6.23s.11-4.16.15-6.22q.12-6.62.17-13.16t.06-13.09q0-6.56-.06-13.1t-.17-13.1q-.06-3.09-.15-6.22C154,147.1,154,145,154,143Z"/><path class="cls-2" d="M94.27,79.26a1.74,1.74,0,0,1,2,1.77l.48,5.46s0,.26.09.69.18.65.34.65.33-.18.5-.53l.31-.62a17.06,17.06,0,0,1,4.79-5.79,11.56,11.56,0,0,1,7.13-2.11,25.45,25.45,0,0,1,2.56.17c1,.11,1.56.65,1.56,1.6a13.9,13.9,0,0,1-.29,2.25c-.19,1-.41,2-.65,3.09s-.42,1.83-.55,2.37a2.74,2.74,0,0,1-.6,1.27,1.75,1.75,0,0,1-1.36.45,5.65,5.65,0,0,1-.93-.07,6.11,6.11,0,0,0-1-.07,9.06,9.06,0,0,0-6.37,2.37A14.87,14.87,0,0,0,98.38,98a19.34,19.34,0,0,0-1.29,6.8v15.89a1.73,1.73,0,0,1-2,2H87.71a1.75,1.75,0,0,1-2-2q0-7.41.07-14.81t.07-14.77V81.22a1.73,1.73,0,0,1,2-2Z"/><path class="cls-2" d="M137.07,123.94a25.34,25.34,0,0,1-11.78-4.18A19.66,19.66,0,0,1,118.2,111a24.47,24.47,0,0,1-1.44-12.41,25,25,0,0,1,4.08-11.37,20.74,20.74,0,0,1,8.61-7.31,22.05,22.05,0,0,1,12-1.66q8.22,1,12.37,6.12a24.09,24.09,0,0,1,4.91,13,2,2,0,0,1,0,.48,1.46,1.46,0,0,1-.49,1,2.87,2.87,0,0,1-1,.49,28,28,0,0,1-3.58.93c-1.25.24-2.47.51-3.66.82q-5.22,1.27-10.46,2.46t-10.43,2.61c-.26.1-.41.24-.43.43a1,1,0,0,0,.05.35,12.23,12.23,0,0,0,4.64,5.7,15.86,15.86,0,0,0,6.94,2.5,16.29,16.29,0,0,0,5.69-.3,34,34,0,0,0,5.39-1.78,7.4,7.4,0,0,1,.7-.25,1.85,1.85,0,0,1,.69-.07,1.28,1.28,0,0,1,1,.53,3.66,3.66,0,0,1,.49,1c.1.24.29.77.56,1.59s.53,1.63.77,2.45a5.83,5.83,0,0,1,.33,1.55,1.33,1.33,0,0,1-.39.83,4.14,4.14,0,0,1-.74.54,24.72,24.72,0,0,1-8.61,2.55A37.45,37.45,0,0,1,137.07,123.94Zm-9.22-24.55,10-2.2L147.78,95A13.91,13.91,0,0,0,145,90a7.39,7.39,0,0,0-5-2.56,9.22,9.22,0,0,0-6.22,1.24,11.68,11.68,0,0,0-4.1,4.56A17.61,17.61,0,0,0,127.85,99.39Z"/><path class="cls-2" d="M238.67,124a25.45,25.45,0,0,1-11.77-4.17,19.65,19.65,0,0,1-7.09-8.78,24.37,24.37,0,0,1-1.44-12.41,25.06,25.06,0,0,1,4.08-11.38,20.72,20.72,0,0,1,8.61-7.3,22,22,0,0,1,12-1.66q8.22,1,12.36,6.12a24,24,0,0,1,4.91,13,1.86,1.86,0,0,1,0,.48,1.48,1.48,0,0,1-.49,1,2.77,2.77,0,0,1-1,.48,28,28,0,0,1-3.58.93c-1.25.24-2.47.52-3.67.83q-5.2,1.26-10.45,2.46t-10.43,2.61c-.27.09-.41.24-.43.43a.74.74,0,0,0,.05.34,12.17,12.17,0,0,0,4.64,5.7,15.82,15.82,0,0,0,6.93,2.5,16.1,16.1,0,0,0,5.7-.3,35,35,0,0,0,5.39-1.77,6.61,6.61,0,0,1,.7-.26,1.64,1.64,0,0,1,.69-.06,1.29,1.29,0,0,1,1,.52,4,4,0,0,1,.49,1c.1.23.28.76.56,1.58s.53,1.64.77,2.45a5.37,5.37,0,0,1,.32,1.56,1.29,1.29,0,0,1-.38.82,4.14,4.14,0,0,1-.74.54,24.94,24.94,0,0,1-8.61,2.56A38,38,0,0,1,238.67,124Zm-9.22-24.55,10-2.2q5-1.09,9.94-2.21a14.25,14.25,0,0,0-2.77-5,7.45,7.45,0,0,0-5-2.56,9.21,9.21,0,0,0-6.21,1.25,11.54,11.54,0,0,0-4.1,4.56A17.72,17.72,0,0,0,229.45,99.44Z"/><path class="cls-2" d="M210.9,110.18q-.15-11-.15-22t.15-22c0-1.76.07-3.51.11-5.24s.08-3.49.08-5.25a1.76,1.76,0,0,0-2-2h-7.46c-1.21,0-1.87.66-2,2s-.13,2.78-.1,4.23,0,2.88,0,4.28c0,3-.06,6-.07,9s0,6,0,9a4,4,0,0,1,0,.48c0,.22-.15.33-.34.33a1.25,1.25,0,0,1-.67-.34,21,21,0,0,0-13.26-4.4,21.25,21.25,0,0,0-11.63,3,19.27,19.27,0,0,0-7.2,8.21,28.9,28.9,0,0,0-.17,23,19.25,19.25,0,0,0,6.75,8.19,18.89,18.89,0,0,0,11,3.06,22.3,22.3,0,0,0,7.8-1.36,25.19,25.19,0,0,0,6.9-3.9,1.19,1.19,0,0,1,.67-.34c.15,0,.25.11.28.31a3.85,3.85,0,0,1,0,.46q0,1.25.12,2.58c.05.9.66,1.34,1.84,1.34h7.56a1.76,1.76,0,0,0,2-2c0-1.75,0-3.5-.08-5.24S210.93,111.94,210.9,110.18Zm-12.44-2.83a10.24,10.24,0,0,1-3.65,3.74l-.43.25a13.16,13.16,0,1,1,.58-22,10.84,10.84,0,0,1,3.25,3.22l.09.15a13.17,13.17,0,0,1,.16,14.63Z"/><path class="cls-2" d="M111.15,240.5a10.23,10.23,0,0,1,3.61.58,5.17,5.17,0,0,1,2.36,1.64,4,4,0,0,1,.82,2.54,4.21,4.21,0,0,1-.88,2.68,4.32,4.32,0,0,1-2.4,1.51,4.72,4.72,0,0,1,2.9,1.64,4.82,4.82,0,0,1,1.06,3.17,4.57,4.57,0,0,1-.88,2.81,5.62,5.62,0,0,1-2.49,1.82,10.31,10.31,0,0,1-3.8.64h-9v-19Zm-.22,7.7a2.93,2.93,0,0,0,1.91-.59,2,2,0,0,0,.7-1.61,1.89,1.89,0,0,0-.7-1.57,2.91,2.91,0,0,0-1.91-.53h-4.24v4.3Zm0,7.93a4.1,4.1,0,0,0,2.4-.62,2.08,2.08,0,0,0,.86-1.77,2,2,0,0,0-.86-1.69,4,4,0,0,0-2.4-.59h-4.24v4.67Z"/><path class="cls-2" d="M150.39,240.5a8.72,8.72,0,0,1,5.79,1.73,6,6,0,0,1,2,4.85,6.53,6.53,0,0,1-2,5.12,8.33,8.33,0,0,1-5.79,1.84h-4v5.49h-4.29v-19Zm0,10.06a4.16,4.16,0,0,0,2.77-.83,3.11,3.11,0,0,0,1-2.51,3,3,0,0,0-1-2.45,4.22,4.22,0,0,0-2.77-.81h-4v6.6Zm-.52,1.88h4.19l4.62,7.09h-4.87Z"/><path class="cls-2" d="M188.3,240.5h4.4l8.1,19h-4.57l-5.87-14.73-5.9,14.73H180Zm-3.67,11.88h11.22v3.34H184.63Z"/><path class="cls-2" d="M235.61,245.67a12.68,12.68,0,0,0-2.08-1,16.26,16.26,0,0,0-2.07-.65,8.12,8.12,0,0,0-1.78-.23,3.24,3.24,0,0,0-1.75.42,1.4,1.4,0,0,0-.67,1.26,1.65,1.65,0,0,0,.56,1.29,4.2,4.2,0,0,0,1.45.82c.6.21,1.26.42,2,.62s1.44.45,2.16.72a9.59,9.59,0,0,1,2,1,4.61,4.61,0,0,1,1.44,1.63,5.09,5.09,0,0,1,.53,2.46,5,5,0,0,1-1,3.13,6.12,6.12,0,0,1-2.67,1.95,10.19,10.19,0,0,1-3.79.68,12.42,12.42,0,0,1-3.1-.38,13.15,13.15,0,0,1-2.87-1.07,12.54,12.54,0,0,1-2.43-1.62l1.71-3.37a11.48,11.48,0,0,0,2.16,1.52,11.88,11.88,0,0,0,2.38,1,8,8,0,0,0,2.2.35,3.66,3.66,0,0,0,2.08-.51,1.69,1.69,0,0,0,.75-1.47,1.66,1.66,0,0,0-.55-1.31,4.67,4.67,0,0,0-1.44-.83c-.59-.22-1.26-.43-2-.62s-1.45-.42-2.17-.68a9,9,0,0,1-2-1,4.51,4.51,0,0,1-2-4,5,5,0,0,1,.92-3,6,6,0,0,1,2.59-2,9.76,9.76,0,0,1,3.85-.7,13.25,13.25,0,0,1,3.92.59,13.12,13.12,0,0,1,3.31,1.5Z"/><path class="cls-2" d="M260.77,240.5h4.29v19h-4.29Z"/><path class="cls-2" d="M289.65,240.5H294v15.41h8.12v3.62H289.65Z"/><path class="cls-2" d="M433.55,285.43S459.68,268,462.09,237a13.9,13.9,0,0,1,3.55-7.77c3.72-3.53,10.64-7.27,24.23-11a30.36,30.36,0,0,0,21.76-23.17c3.39-16.46,7.83-37.81,15-45,5.89-5.88,33.54-35.74,17-45.64-15.51-9.31-43.33-25.85-69.86-26.66a9.3,9.3,0,0,1-7.76-4.7c-5.24-9.14-13.12-25.78-19.84-26.07-7-.3-11,14.39-48.42,16.59,0,0,3.31-23.66-15.95-20.36,0,0-41.28,6.88-53.9,25.66a8.91,8.91,0,0,0-.29,9.33c3.17,5.61,6.73,16.56-7.43,24.43-19.81,11-32.86,49.66,29.16,35.76,38.2-8.56,77.1,78.93,81.21,98.38.49,2.32-2.65,4.7-4.63,6-6.69,4.4-18.91,14.92-15.51,22.15C414.84,274.43,433.55,285.43,433.55,285.43Z"/><circle class="cls-1" cx="361.44" cy="92.87" r="7.49"/><circle class="cls-1" cx="415.05" cy="154.25" r="7.49"/><circle class="cls-1" cx="486.95" cy="123.88" r="7.49"/><circle class="cls-1" cx="483.4" cy="189.38" r="7.49"/><circle class="cls-1" cx="442.67" cy="252.86" r="7.49"/><path class="cls-1" d="M442.47,255.38,414.56,154.51,359.92,91.94l127.59,31.52,0,.45-3.41,64.63-.07.11ZM363,93.8,415.53,154l27.33,98.74L483,188.2l3.38-63.9Z"/><polygon class="cls-1" points="435.17 276.11 434.16 275.74 441.83 254.78 419.41 259.52 419.19 258.46 443.5 253.32 435.17 276.11"/><rect class="cls-1" x="488.01" y="189.78" width="1.07" height="22.14" transform="translate(-37.36 250.32) rotate(-27.72)"/><polygon class="cls-1" points="360.27 93.86 384.13 51.63 385.07 52.16 362.62 91.89 436.04 65.98 436.39 67 360.27 93.86"/><polygon class="cls-1" points="443.2 252.9 442.13 252.82 447.95 171.33 487 122.96 506.01 152.6 505.1 153.18 486.89 124.8 449 171.74 443.2 252.9"/><polygon class="cls-1" points="415.62 155.16 359.59 125.59 360.85 94.15 321.91 130 321.18 129.21 362.03 91.6 360.69 124.96 414.48 153.34 412.84 105.31 463.89 90.31 487.38 123.57 486.51 124.19 463.46 91.56 413.94 106.1 415.62 155.16"/><path class="cls-1" d="M483.89,191.93,413.8,154.19l72.61-30.34v-.17l.1-.13L509,94.61l.85.66L488.15,123.2l50.49-15.09.31,1-51,15.26-.46.19Zm-67.6-37.62,66.62,35.87,3.44-65.13Z"/><rect class="cls-1" x="463.46" y="88.17" width="23.69" height="1.07" transform="translate(-8.2 90.68) rotate(-10.81)"/><rect class="cls-1" x="353.49" y="62.14" width="1.08" height="32.52" transform="translate(3.21 170.09) rotate(-27.13)"/><polygon class="cls-1" points="483.87 191.32 482.94 190.78 505.13 152.54 505.2 152.48 526.83 133.32 486.83 124.41 487.06 123.36 529.11 132.74 505.98 153.23 483.87 191.32"/><rect class="cls-1" x="449.41" y="60.33" width="1.07" height="36.77" transform="translate(91.98 362.44) rotate(-48.32)"/><circle class="cls-1" cx="413.25" cy="105.67" r="4"/><circle class="cls-1" cx="448.65" cy="172.2" r="4"/><circle class="cls-1" cx="463.67" cy="90.94" r="4"/><circle class="cls-1" cx="360.14" cy="125.28" r="4"/><circle class="cls-1" cx="526.93" cy="132.9" r="4"/><circle class="cls-1" cx="504.09" cy="152.89" r="4"/><circle class="cls-1" cx="436.21" cy="66.49" r="4"/><path class="cls-1" d="M408.89,241.84a16,16,0,0,0,8.81-9.58A104.68,104.68,0,0,1,382,211.09c3.74-9.38,7.21-18.86,10.6-28.25a34.73,34.73,0,0,0-8.21-9.81c-3.84,9.62-7.59,19.33-11.57,28.92-12.42-13.68-22.25-30.18-31.32-47.76a45.64,45.64,0,0,1-14.37,3.29c1.85,3.53,3.72,7,5.66,10.53,9.31,16.91,20.35,33.62,34.23,47.41-13.92,30.91-31.71,59.46-63.89,78.07-43.61,25.54-110.81,28-158.83,14.9C92.37,294.6,51.59,255,38,203a172.75,172.75,0,0,1-9.24-51.72c-.49-25.27,7.4-50.64,20.93-72,23.43-38,66-59.06,110.17-60.14,41.41-1.78,80.89,9,109.27,40.44,11,12,19.87,25.25,27.81,39.15,3.51-4,7.78-7.09,12.76-7.81l.33,0C283,41.4,245.68-1.08,159.35,0,121.78.13,83.51,12.35,54.89,37.3,20.91,66.57.21,110.89,0,155.86a206,206,0,0,0,7.51,56.52c9.92,29.32,27,56.47,50.15,77.13,34.06,30.84,80.12,45.57,125.35,46.84,44.25,1,90.25-5.35,128.42-29.23,31.91-19.51,50.76-50.06,65.13-83.05a113.77,113.77,0,0,0,14.25,10,109.52,109.52,0,0,0,17.24,8.29A5.68,5.68,0,0,1,408.89,241.84Z"/><path class="cls-1" d="M580.76,142c.78-34.64-22.34-68-56.26-76.77a84.45,84.45,0,0,0-39.44-.78c5.54,1.28,10.59,3.89,15.91,6.34a9,9,0,0,1,1.26.7A70.18,70.18,0,0,1,522,74.18c25.91,7.14,45.18,31.31,47.73,57.84a124,124,0,0,1-3,40.51c-10.52,43.75-47.82,63.5-90.24,66.08a57.47,57.47,0,0,1-2.83,12.49,165.34,165.34,0,0,0,46.69-10c21.13-8.23,39.5-24.19,49.33-44.79C577.94,179.48,581,160.62,580.76,142Z"/></g></g></svg>