<?xml version="1.0" encoding="UTF-8" standalone="no"?>
<svg
   viewBox="0 0 599.99997 599.99998"
   version="1.1"
   id="svg30"
   sodipodi:docname="versão_h_prioritária_rgb.svg"
   width="600"
   height="600"
   inkscape:version="1.3.2 (091e20ef0f, 2023-11-25)"
   xmlns:inkscape="http://www.inkscape.org/namespaces/inkscape"
   xmlns:sodipodi="http://sodipodi.sourceforge.net/DTD/sodipodi-0.dtd"
   xmlns="http://www.w3.org/2000/svg"
   xmlns:svg="http://www.w3.org/2000/svg">
  <sodipodi:namedview
     id="namedview30"
     pagecolor="#ffffff"
     bordercolor="#000000"
     borderopacity="0.25"
     inkscape:showpageshadow="2"
     inkscape:pageopacity="0.0"
     inkscape:pagecheckerboard="0"
     inkscape:deskcolor="#d1d1d1"
     inkscape:zoom="1.2001101"
     inkscape:cx="267.05882"
     inkscape:cy="245.81077"
     inkscape:window-width="1440"
     inkscape:window-height="835"
     inkscape:window-x="0"
     inkscape:window-y="0"
     inkscape:window-maximized="1"
     inkscape:current-layer="svg30" />
  <defs
     id="defs1">
    <style
       id="style1">.cls-1{fill:#125786;}.cls-2{fill:#90c369;}</style>
  </defs>
  <g
     id="Camada_2"
     data-name="Camada 2"
     transform="translate(9.6127622,131.78555)">
    <g
       id="Camada_1-2"
       data-name="Camada 1">
      <path
         class="cls-1"
         d="m 224.41,223.35 a 8,8 0 0 1 -2.19,-0.35 1.58,1.58 0 0 1 -1.2,-1.7 3,3 0 0 1 0.24,-1.2 l 0.46,-1.08 q 5.33,-11.16 10.56,-22.33 5.23,-11.17 10.32,-22.39 c 2.8,-6.16 12.69,-27.26 15.65,-33.34 a 2.32,2.32 0 0 1 3.92,0 c 3,6.08 12.93,27.2 15.74,33.36 q 5.14,11.28 10.37,22.42 5.23,11.14 10.56,22.26 a 8,8 0 0 1 0.49,1.08 3.4,3.4 0 0 1 0.21,1.2 1.58,1.58 0 0 1 -1.2,1.7 8,8 0 0 1 -2.19,0.35 h -18.89 a 2.59,2.59 0 0 1 -1.75,-0.5 4.25,4.25 0 0 1 -1.05,-1.49 34.74,34.74 0 0 1 -1.87,-5 c -0.51,-1.73 -1.1,-3.42 -1.76,-5.05 a 0.94,0.94 0 0 0 -0.87,-0.65 h -22.69 a 0.93,0.93 0 0 0 -0.82,0.47 0.2,0.2 0 0 0 -0.06,0.15 0.58,0.58 0 0 1 0,0.2 q -0.71,1.76 -1.44,3.51 c -0.48,1.17 -1,2.34 -1.43,3.51 -0.19,0.47 -0.39,1 -0.58,1.49 a 15.56,15.56 0 0 1 -0.65,1.49 4.1,4.1 0 0 1 -1.05,1.4 2.66,2.66 0 0 1 -1.69,0.47 z m 27.91,-30 h 15.76 q -1.81,-5.38 -3.68,-10.77 -1.87,-5.39 -3.68,-10.7 l -4.16,10.7 q -2.1,5.42 -4.24,10.78 z"
         id="path1" />
      <path
         class="cls-1"
         d="m 85.75,143 c 0,-2.06 1,-3.1 3,-3.1 h 50.74 c 2,0 3,1 3,3.1 0,1.37 0,2.74 -0.09,4.12 -0.09,1.38 -0.08,2.78 -0.08,4.18 q -0.06,1.23 0,2.49 a 17.05,17.05 0 0 1 -0.06,2.48 q -0.18,3 -3,3 h -13.7 a 0.83,0.83 0 0 0 -0.93,0.94 c 0,3.55 0,7.09 0,10.64 0,3.55 0,7.09 0,10.64 q 0,9.7 0.08,19.41 0.08,9.71 0.09,19.41 0,3 -3,3 h -16.23 q -3,0 -3,-3 0,-9.7 0.09,-19.41 0.09,-9.71 0.09,-19.41 c 0,-3.55 0,-7.09 0,-10.64 0,-3.55 0,-7.09 0,-10.64 0,-0.62 -0.33,-0.94 -1,-0.94 H 89 q -2.86,0 -3,-3 c 0,-0.82 0,-1.64 0,-2.48 0,-0.84 0,-1.67 0,-2.49 0,-1.4 0,-2.79 -0.09,-4.18 -0.09,-1.39 -0.16,-2.73 -0.16,-4.12 z"
         id="path2" />
      <path
         class="cls-1"
         d="m 154,143 c 0,-2 1,-3 3,-3 h 49.69 c 2,0 3,1 3,3.1 0,1.25 0,2.5 -0.06,3.74 l -0.12,3.74 c 0,1 0,1.95 0,2.9 a 25.42,25.42 0 0 1 0,2.89 c -0.12,2 -1.14,3 -3,3 h -29.3 c -0.66,0 -1,0.32 -1,0.94 l 0.06,11.63 a 0.83,0.83 0 0 0 0.93,0.94 h 24.85 q 3,0 3,3 V 187 q 0,3 -3,3 h -24.84 a 0.83,0.83 0 0 0 -0.93,0.94 l -0.06,12 c 0,0.63 0.33,0.94 1,0.94 h 30.58 c 1.87,0 2.86,1 3,2.92 q 0.18,3.17 0.23,6.67 0.05,3.5 0.06,6.66 0,3.1 -3,3.1 H 157 q -3,0 -3,-3 c 0,-2.06 0,-4.14 0.08,-6.23 0.08,-2.09 0.11,-4.16 0.15,-6.22 q 0.12,-6.62 0.17,-13.16 0.05,-6.54 0.06,-13.09 0,-6.56 -0.06,-13.1 -0.06,-6.54 -0.17,-13.1 -0.06,-3.09 -0.15,-6.22 C 154,147.1 154,145 154,143 Z"
         id="path3" />
      <path
         class="cls-2"
         d="m 94.27,79.26 a 1.74,1.74 0 0 1 2,1.77 l 0.48,5.46 c 0,0 0,0.26 0.09,0.69 0.09,0.43 0.18,0.65 0.34,0.65 0.16,0 0.33,-0.18 0.5,-0.53 l 0.31,-0.62 a 17.06,17.06 0 0 1 4.79,-5.79 11.56,11.56 0 0 1 7.13,-2.11 25.45,25.45 0 0 1 2.56,0.17 c 1,0.11 1.56,0.65 1.56,1.6 a 13.9,13.9 0 0 1 -0.29,2.25 c -0.19,1 -0.41,2 -0.65,3.09 -0.24,1.09 -0.42,1.83 -0.55,2.37 a 2.74,2.74 0 0 1 -0.6,1.27 1.75,1.75 0 0 1 -1.36,0.45 5.65,5.65 0 0 1 -0.93,-0.07 6.11,6.11 0 0 0 -1,-0.07 9.06,9.06 0 0 0 -6.37,2.37 14.87,14.87 0 0 0 -3.9,5.79 19.34,19.34 0 0 0 -1.29,6.8 v 15.89 a 1.73,1.73 0 0 1 -2,2 h -7.38 a 1.75,1.75 0 0 1 -2,-2 q 0,-7.41 0.07,-14.81 0.07,-7.4 0.07,-14.77 v -9.89 a 1.73,1.73 0 0 1 2,-2 z"
         id="path4" />
      <path
         class="cls-2"
         d="m 137.07,123.94 a 25.34,25.34 0 0 1 -11.78,-4.18 19.66,19.66 0 0 1 -7.09,-8.76 24.47,24.47 0 0 1 -1.44,-12.41 25,25 0 0 1 4.08,-11.37 20.74,20.74 0 0 1 8.61,-7.31 22.05,22.05 0 0 1 12,-1.66 q 8.22,1 12.37,6.12 a 24.09,24.09 0 0 1 4.91,13 2,2 0 0 1 0,0.48 1.46,1.46 0 0 1 -0.49,1 2.87,2.87 0 0 1 -1,0.49 28,28 0 0 1 -3.58,0.93 c -1.25,0.24 -2.47,0.51 -3.66,0.82 q -5.22,1.27 -10.46,2.46 -5.24,1.19 -10.43,2.61 c -0.26,0.1 -0.41,0.24 -0.43,0.43 a 1,1 0 0 0 0.05,0.35 12.23,12.23 0 0 0 4.64,5.7 15.86,15.86 0 0 0 6.94,2.5 16.29,16.29 0 0 0 5.69,-0.3 34,34 0 0 0 5.39,-1.78 7.4,7.4 0 0 1 0.7,-0.25 1.85,1.85 0 0 1 0.69,-0.07 1.28,1.28 0 0 1 1,0.53 3.66,3.66 0 0 1 0.49,1 c 0.1,0.24 0.29,0.77 0.56,1.59 0.27,0.82 0.53,1.63 0.77,2.45 a 5.83,5.83 0 0 1 0.33,1.55 1.33,1.33 0 0 1 -0.39,0.83 4.14,4.14 0 0 1 -0.74,0.54 24.72,24.72 0 0 1 -8.61,2.55 37.45,37.45 0 0 1 -9.12,0.16 z m -9.22,-24.55 10,-2.2 9.93,-2.19 a 13.91,13.91 0 0 0 -2.78,-5 7.39,7.39 0 0 0 -5,-2.56 9.22,9.22 0 0 0 -6.22,1.24 11.68,11.68 0 0 0 -4.1,4.56 17.61,17.61 0 0 0 -1.83,6.15 z"
         id="path5" />
      <path
         class="cls-2"
         d="m 238.67,124 a 25.45,25.45 0 0 1 -11.77,-4.17 19.65,19.65 0 0 1 -7.09,-8.78 24.37,24.37 0 0 1 -1.44,-12.41 25.06,25.06 0 0 1 4.08,-11.38 20.72,20.72 0 0 1 8.61,-7.3 22,22 0 0 1 12,-1.66 q 8.22,1 12.36,6.12 a 24,24 0 0 1 4.91,13 1.86,1.86 0 0 1 0,0.48 1.48,1.48 0 0 1 -0.49,1 2.77,2.77 0 0 1 -1,0.48 28,28 0 0 1 -3.58,0.93 c -1.25,0.24 -2.47,0.52 -3.67,0.83 q -5.2,1.26 -10.45,2.46 -5.25,1.2 -10.43,2.61 c -0.27,0.09 -0.41,0.24 -0.43,0.43 a 0.74,0.74 0 0 0 0.05,0.34 12.17,12.17 0 0 0 4.64,5.7 15.82,15.82 0 0 0 6.93,2.5 16.1,16.1 0 0 0 5.7,-0.3 35,35 0 0 0 5.39,-1.77 6.61,6.61 0 0 1 0.7,-0.26 1.64,1.64 0 0 1 0.69,-0.06 1.29,1.29 0 0 1 1,0.52 4,4 0 0 1 0.49,1 c 0.1,0.23 0.28,0.76 0.56,1.58 0.28,0.82 0.53,1.64 0.77,2.45 a 5.37,5.37 0 0 1 0.32,1.56 1.29,1.29 0 0 1 -0.38,0.82 4.14,4.14 0 0 1 -0.74,0.54 24.94,24.94 0 0 1 -8.61,2.56 38,38 0 0 1 -9.12,0.18 z m -9.22,-24.55 10,-2.2 q 5,-1.09 9.94,-2.21 a 14.25,14.25 0 0 0 -2.77,-5 7.45,7.45 0 0 0 -5,-2.56 9.21,9.21 0 0 0 -6.21,1.25 11.54,11.54 0 0 0 -4.1,4.56 17.72,17.72 0 0 0 -1.86,6.15 z"
         id="path6" />
      <path
         class="cls-2"
         d="m 210.9,110.18 q -0.15,-11 -0.15,-22 0,-11 0.15,-22 c 0,-1.76 0.07,-3.51 0.11,-5.24 0.04,-1.73 0.08,-3.49 0.08,-5.25 a 1.76,1.76 0 0 0 -2,-2 h -7.46 c -1.21,0 -1.87,0.66 -2,2 -0.13,1.34 -0.13,2.78 -0.1,4.23 0.03,1.45 0,2.88 0,4.28 0,3 -0.06,6 -0.07,9 -0.01,3 0,6 0,9 a 4,4 0 0 1 0,0.48 c 0,0.22 -0.15,0.33 -0.34,0.33 a 1.25,1.25 0 0 1 -0.67,-0.34 21,21 0 0 0 -13.26,-4.4 21.25,21.25 0 0 0 -11.63,3 19.27,19.27 0 0 0 -7.2,8.21 28.9,28.9 0 0 0 -0.17,23 19.25,19.25 0 0 0 6.75,8.19 18.89,18.89 0 0 0 11,3.06 22.3,22.3 0 0 0 7.8,-1.36 25.19,25.19 0 0 0 6.9,-3.9 1.19,1.19 0 0 1 0.67,-0.34 c 0.15,0 0.25,0.11 0.28,0.31 a 3.85,3.85 0 0 1 0,0.46 q 0,1.25 0.12,2.58 c 0.05,0.9 0.66,1.34 1.84,1.34 h 7.56 a 1.76,1.76 0 0 0 2,-2 c 0,-1.75 0,-3.5 -0.08,-5.24 -0.08,-1.74 -0.1,-3.64 -0.13,-5.4 z m -12.44,-2.83 a 10.24,10.24 0 0 1 -3.65,3.74 l -0.43,0.25 a 13.16,13.16 0 1 1 0.58,-22 10.84,10.84 0 0 1 3.25,3.22 l 0.09,0.15 a 13.17,13.17 0 0 1 0.16,14.63 z"
         id="path7" />
      <path
         class="cls-2"
         d="m 111.15,240.5 a 10.23,10.23 0 0 1 3.61,0.58 5.17,5.17 0 0 1 2.36,1.64 4,4 0 0 1 0.82,2.54 4.21,4.21 0 0 1 -0.88,2.68 4.32,4.32 0 0 1 -2.4,1.51 4.72,4.72 0 0 1 2.9,1.64 4.82,4.82 0 0 1 1.06,3.17 4.57,4.57 0 0 1 -0.88,2.81 5.62,5.62 0 0 1 -2.49,1.82 10.31,10.31 0 0 1 -3.8,0.64 h -9 v -19 z m -0.22,7.7 a 2.93,2.93 0 0 0 1.91,-0.59 2,2 0 0 0 0.7,-1.61 1.89,1.89 0 0 0 -0.7,-1.57 2.91,2.91 0 0 0 -1.91,-0.53 h -4.24 v 4.3 z m 0,7.93 a 4.1,4.1 0 0 0 2.4,-0.62 2.08,2.08 0 0 0 0.86,-1.77 2,2 0 0 0 -0.86,-1.69 4,4 0 0 0 -2.4,-0.59 h -4.24 v 4.67 z"
         id="path8" />
      <path
         class="cls-2"
         d="m 150.39,240.5 a 8.72,8.72 0 0 1 5.79,1.73 6,6 0 0 1 2,4.85 6.53,6.53 0 0 1 -2,5.12 8.33,8.33 0 0 1 -5.79,1.84 h -4 v 5.49 h -4.29 v -19 z m 0,10.06 a 4.16,4.16 0 0 0 2.77,-0.83 3.11,3.11 0 0 0 1,-2.51 3,3 0 0 0 -1,-2.45 4.22,4.22 0 0 0 -2.77,-0.81 h -4 v 6.6 z m -0.52,1.88 h 4.19 l 4.62,7.09 h -4.87 z"
         id="path9" />
      <path
         class="cls-2"
         d="m 188.3,240.5 h 4.4 l 8.1,19 h -4.57 l -5.87,-14.73 -5.9,14.73 H 180 Z m -3.67,11.88 h 11.22 v 3.34 h -11.22 z"
         id="path10" />
      <path
         class="cls-2"
         d="m 235.61,245.67 a 12.68,12.68 0 0 0 -2.08,-1 16.26,16.26 0 0 0 -2.07,-0.65 8.12,8.12 0 0 0 -1.78,-0.23 3.24,3.24 0 0 0 -1.75,0.42 1.4,1.4 0 0 0 -0.67,1.26 1.65,1.65 0 0 0 0.56,1.29 4.2,4.2 0 0 0 1.45,0.82 c 0.6,0.21 1.26,0.42 2,0.62 0.74,0.2 1.44,0.45 2.16,0.72 a 9.59,9.59 0 0 1 2,1 4.61,4.61 0 0 1 1.44,1.63 5.09,5.09 0 0 1 0.53,2.46 5,5 0 0 1 -1,3.13 6.12,6.12 0 0 1 -2.67,1.95 10.19,10.19 0 0 1 -3.79,0.68 12.42,12.42 0 0 1 -3.1,-0.38 13.15,13.15 0 0 1 -2.87,-1.07 12.54,12.54 0 0 1 -2.43,-1.62 l 1.71,-3.37 a 11.48,11.48 0 0 0 2.16,1.52 11.88,11.88 0 0 0 2.38,1 8,8 0 0 0 2.2,0.35 3.66,3.66 0 0 0 2.08,-0.51 1.69,1.69 0 0 0 0.75,-1.47 1.66,1.66 0 0 0 -0.55,-1.31 4.67,4.67 0 0 0 -1.44,-0.83 c -0.59,-0.22 -1.26,-0.43 -2,-0.62 -0.74,-0.19 -1.45,-0.42 -2.17,-0.68 a 9,9 0 0 1 -2,-1 4.51,4.51 0 0 1 -2,-4 5,5 0 0 1 0.92,-3 6,6 0 0 1 2.59,-2 9.76,9.76 0 0 1 3.85,-0.7 13.25,13.25 0 0 1 3.92,0.59 13.12,13.12 0 0 1 3.31,1.5 z"
         id="path11" />
      <path
         class="cls-2"
         d="m 260.77,240.5 h 4.29 v 19 h -4.29 z"
         id="path12" />
      <path
         class="cls-2"
         d="M 289.65,240.5 H 294 v 15.41 h 8.12 v 3.62 h -12.47 z"
         id="path13" />
      <path
         class="cls-2"
         d="m 433.55,285.43 c 0,0 26.13,-17.43 28.54,-48.43 a 13.9,13.9 0 0 1 3.55,-7.77 c 3.72,-3.53 10.64,-7.27 24.23,-11 a 30.36,30.36 0 0 0 21.76,-23.17 c 3.39,-16.46 7.83,-37.81 15,-45 5.89,-5.88 33.54,-35.74 17,-45.64 C 528.12,95.11 500.3,78.57 473.77,77.76 a 9.3,9.3 0 0 1 -7.76,-4.7 c -5.24,-9.14 -13.12,-25.78 -19.84,-26.07 -7,-0.3 -11,14.39 -48.42,16.59 0,0 3.31,-23.66 -15.95,-20.36 0,0 -41.28,6.88 -53.9,25.66 a 8.91,8.91 0 0 0 -0.29,9.33 c 3.17,5.61 6.73,16.56 -7.43,24.43 -19.81,11 -32.86,49.66 29.16,35.76 38.2,-8.56 77.1,78.93 81.21,98.38 0.49,2.32 -2.65,4.7 -4.63,6 -6.69,4.4 -18.91,14.92 -15.51,22.15 4.43,9.5 23.14,20.5 23.14,20.5 z"
         id="path14" />
      <circle
         class="cls-1"
         cx="361.44"
         cy="92.870003"
         r="7.4899998"
         id="circle14" />
      <circle
         class="cls-1"
         cx="415.04999"
         cy="154.25"
         r="7.4899998"
         id="circle15" />
      <circle
         class="cls-1"
         cx="486.95001"
         cy="123.88"
         r="7.4899998"
         id="circle16" />
      <circle
         class="cls-1"
         cx="483.39999"
         cy="189.38"
         r="7.4899998"
         id="circle17" />
      <circle
         class="cls-1"
         cx="442.67001"
         cy="252.86"
         r="7.4899998"
         id="circle18" />
      <path
         class="cls-1"
         d="M 442.47,255.38 414.56,154.51 359.92,91.94 487.51,123.46 v 0.45 l -3.41,64.63 -0.07,0.11 z M 363,93.8 415.53,154 442.86,252.74 483,188.2 l 3.38,-63.9 z"
         id="path18" />
      <polygon
         class="cls-1"
         points="441.83,254.78 419.41,259.52 419.19,258.46 443.5,253.32 435.17,276.11 434.16,275.74 "
         id="polygon18" />
      <rect
         class="cls-1"
         x="488.01001"
         y="189.78"
         width="1.0700001"
         height="22.139999"
         transform="rotate(-27.72,488.58648,200.869)"
         id="rect18" />
      <polygon
         class="cls-1"
         points="385.07,52.16 362.62,91.89 436.04,65.98 436.39,67 360.27,93.86 384.13,51.63 "
         id="polygon19" />
      <polygon
         class="cls-1"
         points="443.2,252.9 442.13,252.82 447.95,171.33 487,122.96 506.01,152.6 505.1,153.18 486.89,124.8 449,171.74 "
         id="polygon20" />
      <polygon
         class="cls-1"
         points="412.84,105.31 463.89,90.31 487.38,123.57 486.51,124.19 463.46,91.56 413.94,106.1 415.62,155.16 359.59,125.59 360.85,94.15 321.91,130 321.18,129.21 362.03,91.6 360.69,124.96 414.48,153.34 "
         id="polygon21" />
      <path
         class="cls-1"
         d="m 483.89,191.93 -70.09,-37.74 72.61,-30.34 v -0.17 l 0.1,-0.13 22.49,-28.94 0.85,0.66 -21.7,27.93 50.49,-15.09 0.31,1 -51,15.26 -0.46,0.19 z m -67.6,-37.62 66.62,35.87 3.44,-65.13 z"
         id="path21" />
      <rect
         class="cls-1"
         x="463.45999"
         y="88.169998"
         width="23.690001"
         height="1.0700001"
         transform="rotate(-10.81,475.10075,88.673107)"
         id="rect21" />
      <rect
         class="cls-1"
         x="353.48999"
         y="62.139999"
         width="1.08"
         height="32.52"
         transform="rotate(-27.13,354.08085,78.392948)"
         id="rect22" />
      <polygon
         class="cls-1"
         points="505.98,153.23 483.87,191.32 482.94,190.78 505.13,152.54 505.2,152.48 526.83,133.32 486.83,124.41 487.06,123.36 529.11,132.74 "
         id="polygon22" />
      <rect
         class="cls-1"
         x="449.41"
         y="60.330002"
         width="1.0700001"
         height="36.77"
         transform="rotate(-48.32,449.97686,78.69624)"
         id="rect23" />
      <circle
         class="cls-1"
         cx="413.25"
         cy="105.67"
         r="4"
         id="circle23" />
      <circle
         class="cls-1"
         cx="448.64999"
         cy="172.2"
         r="4"
         id="circle24" />
      <circle
         class="cls-1"
         cx="463.67001"
         cy="90.940002"
         r="4"
         id="circle25" />
      <circle
         class="cls-1"
         cx="360.14001"
         cy="125.28"
         r="4"
         id="circle26" />
      <circle
         class="cls-1"
         cx="526.92999"
         cy="132.89999"
         r="4"
         id="circle27" />
      <circle
         class="cls-1"
         cx="504.09"
         cy="152.89"
         r="4"
         id="circle28" />
      <circle
         class="cls-1"
         cx="436.20999"
         cy="66.489998"
         r="4"
         id="circle29" />
      <path
         class="cls-1"
         d="m 408.89,241.84 a 16,16 0 0 0 8.81,-9.58 104.68,104.68 0 0 1 -35.7,-21.17 c 3.74,-9.38 7.21,-18.86 10.6,-28.25 a 34.73,34.73 0 0 0 -8.21,-9.81 c -3.84,9.62 -7.59,19.33 -11.57,28.92 -12.42,-13.68 -22.25,-30.18 -31.32,-47.76 a 45.64,45.64 0 0 1 -14.37,3.29 c 1.85,3.53 3.72,7 5.66,10.53 9.31,16.91 20.35,33.62 34.23,47.41 -13.92,30.91 -31.71,59.46 -63.89,78.07 -43.61,25.54 -110.81,28 -158.83,14.9 C 92.37,294.6 51.59,255 38,203 a 172.75,172.75 0 0 1 -9.24,-51.72 c -0.49,-25.27 7.4,-50.64 20.93,-72 23.43,-38 66,-59.06 110.17,-60.14 41.41,-1.78 80.89,9 109.27,40.44 11,12 19.87,25.25 27.81,39.15 3.51,-4 7.78,-7.09 12.76,-7.81 h 0.33 C 283,41.4 245.68,-1.08 159.35,0 121.78,0.13 83.51,12.35 54.89,37.3 20.91,66.57 0.21,110.89 0,155.86 a 206,206 0 0 0 7.51,56.52 c 9.92,29.32 27,56.47 50.15,77.13 34.06,30.84 80.12,45.57 125.35,46.84 44.25,1 90.25,-5.35 128.42,-29.23 31.91,-19.51 50.76,-50.06 65.13,-83.05 a 113.77,113.77 0 0 0 14.25,10 109.52,109.52 0 0 0 17.24,8.29 5.68,5.68 0 0 1 0.84,-0.52 z"
         id="path29" />
      <path
         class="cls-1"
         d="M 580.76,142 C 581.54,107.36 558.42,74 524.5,65.23 a 84.45,84.45 0 0 0 -39.44,-0.78 c 5.54,1.28 10.59,3.89 15.91,6.34 a 9,9 0 0 1 1.26,0.7 70.18,70.18 0 0 1 19.77,2.69 c 25.91,7.14 45.18,31.31 47.73,57.84 a 124,124 0 0 1 -3,40.51 c -10.52,43.75 -47.82,63.5 -90.24,66.08 a 57.47,57.47 0 0 1 -2.83,12.49 165.34,165.34 0 0 0 46.69,-10 c 21.13,-8.23 39.5,-24.19 49.33,-44.79 8.26,-16.83 11.32,-35.69 11.08,-54.31 z"
         id="path30" />
    </g>
  </g>
</svg>
